<?xml version="1.0" encoding="utf-8"?>
<!-- Generator: Adobe Illustrator 28.1.0, SVG Export Plug-In . SVG Version: 6.00 Build 0)  -->
<svg version="1.1" id="Capa_1" xmlns="http://www.w3.org/2000/svg" xmlns:xlink="http://www.w3.org/1999/xlink" x="0px" y="0px"
	 viewBox="0 0 56 56" style="enable-background:new 0 0 56 56;" xml:space="preserve">
<style type="text/css">
	.st0{fill:#FED400;}
</style>
<path id="paid_FILL0_wght400_GRAD0_opsz48" class="st0" d="M26,48.1h3.8v-3.6c2.4-0.2,4.8-1.1,6.6-2.6c1.6-1.5,2.5-3.5,2.4-5.7
	c0.1-2.1-0.6-4.2-2-5.8c-2-1.9-4.3-3.3-6.9-4.3c-2.1-0.8-4-1.8-5.9-3c-1.2-0.8-1.9-2.1-1.8-3.6c-0.1-1.3,0.5-2.6,1.6-3.4
	c1.2-0.9,2.8-1.3,4.3-1.3c1.3,0,2.5,0.3,3.6,1c1.1,0.7,2,1.8,2.6,2.9l3.4-1.6c-0.7-1.5-1.8-2.9-3.2-3.8c-1.4-1-3-1.5-4.6-1.7V8h-3.8
	v3.6c-2.1,0.2-4.1,1.1-5.6,2.6c-1.4,1.4-2.1,3.3-2.1,5.3c-0.1,2,0.7,4,2.1,5.5c1.9,1.6,4,2.9,6.3,3.8c2.3,0.8,4.5,2,6.4,3.5
	c1.1,1,1.8,2.4,1.8,3.9c0,1.4-0.7,2.8-1.9,3.6c-1.4,0.9-3,1.4-4.7,1.4c-1.7,0-3.5-0.5-4.9-1.5c-1.4-1-2.5-2.5-3-4.2l-3.6,1.2
	c0.8,1.9,2.1,3.7,3.6,5.1c1.5,1.3,3.3,2.2,5.3,2.7V48.1z M28,56c-3.7,0-7.4-0.7-10.8-2.2c-3.3-1.4-6.4-3.5-8.9-6
	c-2.6-2.6-4.6-5.6-6-8.9C0.7,35.4,0,31.7,0,28c0-3.8,0.7-7.5,2.2-10.9c1.4-3.3,3.5-6.3,6-8.9c2.6-2.5,5.6-4.6,8.9-6
	C20.6,0.7,24.3,0,28,0c3.8,0,7.5,0.7,10.9,2.2c3.3,1.4,6.3,3.4,8.9,6c2.5,2.6,4.6,5.6,6,8.9C55.3,20.5,56,24.2,56,28
	c0,3.7-0.7,7.4-2.2,10.8c-1.4,3.3-3.4,6.4-6,8.9c-2.5,2.6-5.6,4.6-8.9,6C35.5,55.3,31.8,56,28,56z M28,51.8c6.3,0.1,12.5-2.4,16.9-7
	c4.5-4.4,7-10.5,6.9-16.8c0.1-6.3-2.4-12.4-6.9-16.9c-4.4-4.5-10.5-7-16.9-6.9c-6.3-0.1-12.4,2.4-16.8,6.9c-4.6,4.4-7.1,10.5-7,16.9
	c-0.1,6.3,2.4,12.4,7,16.8C15.6,49.4,21.7,51.9,28,51.8z"/>
</svg>
