<?xml version="1.0" encoding="utf-8"?>
<!-- Generator: Adobe Illustrator 28.1.0, SVG Export Plug-In . SVG Version: 6.00 Build 0)  -->
<svg version="1.1" id="Capa_1" xmlns="http://www.w3.org/2000/svg" xmlns:xlink="http://www.w3.org/1999/xlink" x="0px" y="0px"
	 viewBox="0 0 16 16" style="enable-background:new 0 0 16 16;" xml:space="preserve">
<style type="text/css">
	.st0{fill:#FFD600;}
	.st1{fill:#FFFFFF;}
</style>
<g id="Grupo_8075" transform="translate(0.091 4.999)">
	<circle id="Elipse_171" class="st0" cx="7.9" cy="3" r="8"/>
	<path id="schedule_FILL0_wght400_GRAD0_opsz24_3_" class="st1" d="M10.1,6.1L11,5.2L8.6,2.7v-3H7.3v3.5L10.1,6.1z M7.9,9.6
		C7,9.6,6.2,9.4,5.4,9C4.6,8.7,3.9,8.2,3.3,7.6C2.7,7,2.2,6.3,1.9,5.6C1.5,4.8,1.3,3.9,1.3,3c0-0.9,0.2-1.8,0.5-2.6
		C2.2-0.3,2.7-1,3.3-1.6C3.9-2.2,4.6-2.7,5.4-3C6.2-3.4,7-3.6,7.9-3.6c0.9,0,1.8,0.2,2.6,0.5c0.8,0.3,1.5,0.8,2.1,1.4
		C13.1-1,13.6-0.3,14,0.4c0.3,0.8,0.5,1.7,0.5,2.6c0,0.9-0.2,1.8-0.5,2.6c-0.3,0.8-0.8,1.5-1.4,2.1C12,8.2,11.2,8.7,10.5,9
		C9.7,9.4,8.8,9.6,7.9,9.6z M7.9,8.3c1.4,0,2.7-0.5,3.7-1.5c1-1,1.6-2.3,1.5-3.7c0-1.4-0.5-2.7-1.5-3.7c-1-1-2.3-1.6-3.7-1.5
		c-1.4,0-2.7,0.5-3.7,1.5c-1,1-1.6,2.3-1.5,3.7c0,1.4,0.5,2.7,1.5,3.7C5.2,7.7,6.5,8.3,7.9,8.3z"/>
</g>
</svg>
