<svg xmlns="http://www.w3.org/2000/svg" width="14.606" height="14.15" viewBox="0 0 14.606 14.15">
  <g id="Group_3295" data-name="Group 3295" transform="translate(-7600.544 -87.939)">
    <path id="Path_5009" data-name="Path 5009" d="M7615.15,91.478v5.449a.1.1,0,0,0-.021.035,1.443,1.443,0,0,1-1.494,1.194c-.3-.013-.6,0-.91,0v2.421a1.445,1.445,0,0,1-1.514,1.513h-6.732a1.444,1.444,0,0,1-1.509-1.5V98.153c-.365,0-.711,0-1.058,0a1.43,1.43,0,0,1-1.366-1.378q0-2.567,0-5.135a1.416,1.416,0,0,1,1.214-1.355c.349-.034.7-.021,1.054-.028.05,0,.1,0,.156,0,0-.308-.019-.594.007-.877a1.829,1.829,0,0,1,.151-.628,1.384,1.384,0,0,1,1.333-.807c1.631,0,3.262,0,4.893,0,.642,0,1.284-.009,1.926,0a1.4,1.4,0,0,1,1.268.755,1.436,1.436,0,0,1,.178.709c0,.279,0,.557,0,.846.327,0,.636,0,.943,0a1.424,1.424,0,0,1,1.335.812A3.581,3.581,0,0,1,7615.15,91.478Zm-2.426,5.616h.884c.345,0,.479-.135.479-.485V92.616c0-.29,0-.58,0-.87a.374.374,0,0,0-.232-.387.706.706,0,0,0-.252-.027h-11.509a.372.372,0,0,0-.142,0,.684.684,0,0,0-.267.158.516.516,0,0,0-.077.292q-.006,2.425,0,4.849c0,.024,0,.048,0,.071a.381.381,0,0,0,.4.388c.295,0,.59,0,.884,0a.44.44,0,0,0,.076-.015c0-.261,0-.869,0-1.125a1.418,1.418,0,0,1,1.26-1.374c.392-.035.788-.023,1.182-.023q2.9,0,5.8,0a1.448,1.448,0,0,1,1.507,1.493Zm-4.881-1.572c-1.167,0-2.334.006-3.5,0a.419.419,0,0,0-.459.449c.006,1.449,0,3.263,0,4.712,0,.306.14.446.44.447q3.523,0,7.046,0a.382.382,0,0,0,.434-.438c0-1.454,0-3.273,0-4.726,0-.3-.141-.438-.447-.438Zm3.8-5.272c0-.32,0-.627,0-.935a.272.272,0,0,0-.042-.118.411.411,0,0,0-.416-.183q-3.337,0-6.673,0a1.4,1.4,0,0,0-.17.007.327.327,0,0,0-.286.26c-.012.32,0,.641,0,.967Z" fill="#004cac"/>
    <path id="Path_5010" data-name="Path 5010" d="M7871.976,204.905c-.176,0-.353,0-.528,0a.387.387,0,0,1-.379-.4.394.394,0,0,1,.387-.383q.529-.007,1.056,0a.392.392,0,0,1,.014.782l-.042,0h-.507Z" transform="translate(-260.307 -111.792)" fill="#004cac"/>
  </g>
</svg>
